<svg width="45" height="30" viewBox="0 0 45 30" fill="none" xmlns="http://www.w3.org/2000/svg">
<line x1="1.5" y1="-1.5" x2="22.9122" y2="-1.5" transform="matrix(-0.796845 -0.604183 0.402452 -0.915441 32.3818 14.7494)" stroke="white" stroke-width="3" stroke-linecap="round"/>
<line x1="1.5" y1="-1.5" x2="22.9122" y2="-1.5" transform="matrix(-0.796845 -0.604183 0.402452 -0.915441 20.917 14.7494)" stroke="white" stroke-width="3" stroke-linecap="round"/>
<line x1="1.5" y1="-1.5" x2="22.9122" y2="-1.5" transform="matrix(-0.796845 -0.604183 0.402452 -0.915441 44.3916 14.7494)" stroke="white" stroke-width="3" stroke-linecap="round"/>
<line x1="1.5" y1="-1.5" x2="22.9122" y2="-1.5" transform="matrix(-0.796845 0.604183 -0.402452 -0.915441 30.917 13.1102)" stroke="white" stroke-width="3" stroke-linecap="round"/>
<line x1="1.5" y1="-1.5" x2="22.9122" y2="-1.5" transform="matrix(-0.796845 0.604183 -0.402452 -0.915441 19.4521 13.1102)" stroke="white" stroke-width="3" stroke-linecap="round"/>
<line x1="1.5" y1="-1.5" x2="22.9122" y2="-1.5" transform="matrix(-0.796845 0.604183 -0.402452 -0.915441 42.9268 13.1102)" stroke="white" stroke-width="3" stroke-linecap="round"/>
</svg>
